<svg width="274" height="5" viewBox="0 0 274 5" fill="none" xmlns="http://www.w3.org/2000/svg">
<path fill-rule="evenodd" clip-rule="evenodd" d="M136.991 0.910292C138.749 0.910292 140.22 1.48115 140.522 2.21509H143.434C143.576 1.48115 144.288 0.910292 145.128 0.910292C145.967 0.910292 146.663 1.48115 146.805 2.21509H149.036C151.078 1.86341 152.821 1.15903 154.197 2.40107e-08C175.189 0.412846 196.195 0.836901 217.202 1.24567L274 2.37512V2.62386L217.202 3.74007L154.197 5C152.695 3.69418 150.937 3.08054 149.086 2.77167H146.805C146.663 3.51989 145.967 4.07647 145.128 4.07647C144.288 4.07647 143.576 3.51989 143.434 2.77167H140.522C140.22 3.51989 138.749 4.07647 136.991 4.07647C135.235 4.07647 133.762 3.51989 133.477 2.77167H130.548C130.405 3.51989 129.71 4.07647 128.872 4.07647C128.031 4.07647 127.32 3.51989 127.177 2.77167H124.912C123.045 3.08054 121.303 3.69418 119.799 5L56.7813 3.74007L0 2.62386V2.37512L56.7813 1.24567C77.7875 0.836901 98.7936 0.412846 119.799 2.40107e-08C121.161 1.15903 122.918 1.86341 124.943 2.21509H127.177C127.32 1.48115 128.031 0.910292 128.872 0.910292C129.71 0.910292 130.405 1.48115 130.548 2.21509H133.462C133.762 1.48115 135.235 0.910292 136.991 0.910292Z" fill="#1F3C6C"/>
</svg>
