<svg width="395" height="395" viewBox="0 0 395 395" fill="none" xmlns="http://www.w3.org/2000/svg">
<circle cx="197.5" cy="197.5" r="197.5" fill="url(#paint0_linear_203_8)" fill-opacity="0.6"/>
<path d="M93.9531 205.297L80.9277 165.775L67.3086 205L63.5605 205.297L48.7168 159.727C48.321 158.564 47.8633 157.673 47.3438 157.055C46.849 156.411 46.1439 155.954 45.2285 155.682L41.8516 154.643L41.7773 153.047C44.2018 153.146 47.0716 153.195 50.3867 153.195C53.3802 153.195 56.7695 153.146 60.5547 153.047L60.7031 154.643L57.2148 155.645C56.6953 155.768 56.3242 155.954 56.1016 156.201C55.8789 156.449 55.7676 156.807 55.7676 157.277C55.7676 157.772 55.8789 158.428 56.1016 159.244C56.349 160.036 56.6706 161.087 57.0664 162.398L67.123 194.275L80.8906 153.121L84.2305 152.861L97.627 194.646L108.092 162.436C108.537 161.025 108.883 159.9 109.131 159.059C109.378 158.217 109.502 157.574 109.502 157.129C109.502 156.684 109.391 156.362 109.168 156.164C108.945 155.966 108.587 155.805 108.092 155.682L104.604 154.754L104.529 153.047C107.201 153.146 109.91 153.195 112.656 153.195C115.328 153.195 117.926 153.146 120.449 153.047L120.598 154.643L116.85 155.83C116.107 156.053 115.514 156.399 115.068 156.869C114.648 157.339 114.227 158.156 113.807 159.318L97.7012 205L93.9531 205.297ZM145.259 202.365C143.156 203.676 140.991 204.617 138.765 205.186C136.538 205.755 134.473 206.039 132.568 206.039C127.125 206.039 122.783 204.493 119.542 201.4C116.301 198.283 114.681 193.966 114.681 188.449C114.681 182.957 116.227 178.467 119.32 174.979C122.437 171.49 126.593 169.746 131.788 169.746C136.143 169.746 139.532 171.057 141.956 173.68C144.381 176.277 145.593 179.877 145.593 184.479C145.593 185.171 145.556 185.876 145.482 186.594H121.954C121.954 191.913 123.204 195.723 125.702 198.023C128.201 200.299 132.11 201.438 137.429 201.438C139.804 201.438 142.34 201.215 145.036 200.77L145.259 202.365ZM138.208 183.514V182.4C138.208 178.887 137.639 176.376 136.501 174.867C135.388 173.358 133.718 172.604 131.491 172.604C128.547 172.604 126.296 173.667 124.738 175.795C123.179 177.923 122.301 180.495 122.103 183.514H138.208ZM148.026 152.936L147.84 151.711C152.219 150.87 156.252 149.992 159.938 149.076L160.272 149.373C160.124 153.406 160.049 159.009 160.049 166.184V190.342C160.049 194.77 160.074 198.333 160.124 201.029C160.198 201.747 160.544 202.192 161.163 202.365L165.208 203.59L165.319 205.111C161.979 205.037 159.097 205 156.672 205C154.248 205 151.378 205.037 148.063 205.111L147.915 203.59L152.108 202.365C152.726 202.167 153.06 201.771 153.11 201.178C153.159 198.382 153.184 195.265 153.184 191.826V176.574C153.184 167.371 153.135 159.986 153.036 154.42L148.026 152.936ZM167.121 152.936L166.935 151.711C171.314 150.87 175.347 149.992 179.033 149.076L179.367 149.373C179.219 153.406 179.144 159.009 179.144 166.184V190.342C179.144 194.77 179.169 198.333 179.219 201.029C179.293 201.747 179.639 202.192 180.258 202.365L184.303 203.59L184.414 205.111C181.074 205.037 178.192 205 175.767 205C173.343 205 170.473 205.037 167.158 205.111L167.01 203.59L171.203 202.365C171.821 202.167 172.155 201.771 172.205 201.178C172.254 198.382 172.279 195.265 172.279 191.826V176.574C172.279 167.371 172.23 159.986 172.131 154.42L167.121 152.936ZM182.839 170.6C185.956 170.674 188.727 170.711 191.151 170.711C192.809 170.711 195.456 170.674 199.093 170.6L199.241 172.121L194.9 173.309C195.815 175.906 196.879 178.776 198.091 181.918C199.303 185.035 200.59 188.288 201.95 191.678C202.519 193.088 203.138 194.708 203.806 196.539C204.498 194.684 205.241 192.791 206.032 190.861C207.195 187.992 208.321 185.171 209.409 182.4C210.498 179.605 211.623 176.574 212.786 173.309L208.556 172.121L208.407 170.6C210.238 170.674 212.378 170.711 214.827 170.711C217.029 170.711 219.169 170.674 221.247 170.6L221.433 172.121L217.982 173.086C217.215 173.333 216.658 173.84 216.312 174.607C215.396 176.71 214.407 179.011 213.343 181.51C210.077 189.179 207.603 195.463 205.921 200.361C204.783 203.676 203.756 207.066 202.841 210.529C201.926 214.018 201.22 217.011 200.726 219.51C200.503 220.722 200.045 221.637 199.353 222.256C198.685 222.899 197.101 223.221 194.603 223.221C192.054 223.221 189.581 223.134 187.181 222.961L186.995 221.514C189.717 221.093 191.733 220.215 193.044 218.879C194.627 217.172 197.077 212.632 200.392 205.26L200.689 204.555L200.169 204.406C195.642 193.125 191.547 183.204 187.886 174.645C187.564 173.902 186.995 173.395 186.179 173.123L182.913 172.121L182.839 170.6ZM241.344 188.189C235.926 188.189 232.228 188.721 230.248 189.785C228.269 190.849 227.28 192.643 227.28 195.166C227.28 197.516 227.935 199.186 229.246 200.176C230.558 201.141 232.339 201.623 234.59 201.623C237.138 201.623 239.365 201.19 241.27 200.324L241.344 188.189ZM223.346 172.9C228.17 170.798 232.438 169.746 236.149 169.746C239.934 169.746 242.878 170.736 244.981 172.715C247.108 174.694 248.16 177.551 248.135 181.287L247.95 196.725C247.925 197.986 247.95 199.001 248.024 199.768C248.123 200.535 248.345 201.128 248.692 201.549C249.063 201.945 249.607 202.229 250.325 202.402C251.042 202.551 252.007 202.637 253.219 202.662L253.405 204.109C252.341 204.53 251.042 204.951 249.508 205.371C247.974 205.792 246.935 206.002 246.391 206.002C243.991 206.002 242.346 204.765 241.455 202.291C237.992 204.79 234.726 206.039 231.659 206.039C228.22 206.039 225.449 205.198 223.346 203.516C221.268 201.809 220.229 199.409 220.229 196.316C220.229 192.507 221.924 189.699 225.313 187.893C228.727 186.087 234.071 185.184 241.344 185.184L241.381 182.289C241.406 179.518 240.701 177.465 239.266 176.129C237.831 174.793 235.629 174.125 232.661 174.125C230.409 174.125 227.589 174.546 224.2 175.387L223.346 172.9ZM254.836 172.344C258.967 171.552 262.888 170.686 266.599 169.746L266.97 170.006V174.348C271.547 171.28 276.037 169.746 280.441 169.746L280.627 169.969C279.909 173.655 279.204 177.477 278.511 181.436L277.027 181.695C276.334 179.592 275.666 177.91 275.023 176.648C274.38 175.362 273.366 174.719 271.98 174.719C270.644 174.719 268.974 175.337 266.97 176.574V192.643C266.97 196.502 266.995 199.26 267.045 200.918C267.069 201.586 267.379 202.007 267.972 202.18L272.908 203.59L273.019 205.111C269.16 205.037 266.018 205 263.593 205C261.169 205 258.299 205.037 254.984 205.111L254.836 203.59L259.14 202.328C259.734 202.13 260.043 201.747 260.068 201.178C260.093 200.114 260.105 198.592 260.105 196.613V183.959C260.105 179.926 260.056 176.921 259.957 174.941L255.021 173.605L254.836 172.344ZM308.405 173.828C306.748 173.309 304.892 173.049 302.839 173.049C298.584 173.049 295.343 174.261 293.116 176.686C290.89 179.085 289.776 182.734 289.776 187.633C289.776 191.863 290.766 195.253 292.745 197.801C294.724 200.324 297.52 201.586 301.132 201.586C303.457 201.586 305.882 200.943 308.405 199.656V173.828ZM303.061 151.711C307.465 150.87 311.498 149.992 315.159 149.076L315.493 149.373C315.345 154.667 315.27 160.357 315.27 166.443V186.631C315.27 190.045 315.283 193.422 315.308 196.762C315.308 198.023 315.345 199.038 315.419 199.805C315.518 200.572 315.741 201.165 316.087 201.586C316.433 201.982 316.94 202.254 317.608 202.402C318.301 202.551 319.266 202.637 320.503 202.662L320.688 204.109C319.6 204.53 318.289 204.951 316.755 205.371C315.246 205.792 314.219 206.002 313.675 206.002C311.176 206.002 309.494 204.592 308.628 201.771C304.793 204.617 301.07 206.039 297.458 206.039C292.881 206.039 289.22 204.419 286.474 201.178C283.752 197.912 282.392 193.904 282.392 189.154C282.392 183.019 284.21 178.269 287.847 174.904C291.483 171.54 296.567 169.857 303.099 169.857C304.682 169.857 306.451 170.031 308.405 170.377C308.405 164.91 308.356 159.59 308.257 154.42L303.247 152.936L303.061 151.711ZM341.602 173.494C340.167 173.098 338.608 172.9 336.926 172.9C334.65 172.9 332.807 173.358 331.397 174.273C329.987 175.164 329.281 176.389 329.281 177.947C329.281 179.456 329.727 180.632 330.617 181.473C331.533 182.314 333.24 183.155 335.739 183.996L338.856 185.035C342.245 186.198 344.744 187.534 346.352 189.043C347.96 190.552 348.764 192.519 348.764 194.943C348.764 198.382 347.416 201.091 344.719 203.07C342.022 205.049 338.633 206.039 334.551 206.039C330.791 206.039 326.944 205.272 323.01 203.738C323.851 200.522 324.531 197.38 325.051 194.312L326.498 194.09L329.17 202.068C330.58 202.613 332.374 202.885 334.551 202.885C336.802 202.885 338.608 202.415 339.969 201.475C341.33 200.535 342.01 199.211 342.01 197.504C342.01 195.896 341.552 194.659 340.637 193.793C339.746 192.902 338.299 192.123 336.295 191.455L332.436 190.156C329.096 189.043 326.77 187.707 325.459 186.148C324.173 184.565 323.53 182.598 323.53 180.248C323.53 177.007 324.767 174.447 327.24 172.566C329.739 170.686 333.005 169.746 337.037 169.746C340.798 169.746 344.212 170.29 347.28 171.379C346.587 174.199 345.956 177.18 345.387 180.322L343.977 180.582L341.602 173.494Z" fill="#1F3C6C"/>
<path d="M89.3763 231.386C90.2542 231.423 91.0482 231.442 91.758 231.442C92.4492 231.442 93.3785 231.423 94.5461 231.386L94.6021 231.988L92.8368 232.534C92.622 232.609 92.5099 232.768 92.5006 233.011C92.4819 233.627 92.4725 234.402 92.4725 235.336V246.699C92.4725 247.801 92.4819 248.73 92.5006 249.487C92.5099 249.702 92.6407 249.846 92.8928 249.921L94.5741 250.44L94.6021 251.042C93.3692 251.014 92.1923 251 91.0715 251C89.9694 251 88.8812 251.014 87.8071 251.042L87.7511 250.44L89.3623 249.949C89.5864 249.884 89.7032 249.72 89.7125 249.459C89.7312 248.721 89.7405 247.801 89.7405 246.699V234.566L82.7914 251L81.7687 251.112L74.7775 234.566V246.699C74.7775 247.801 74.7869 248.721 74.8055 249.459C74.8149 249.72 74.9363 249.884 75.1698 249.949L76.739 250.44L76.767 251.042C75.6555 251.014 74.7261 251 73.9789 251C73.2504 251 72.2837 251.014 71.0788 251.042L71.0228 250.44L72.746 249.921C72.9889 249.846 73.115 249.702 73.1243 249.487C73.143 248.73 73.1523 247.801 73.1523 246.699V235.336C73.1523 234.402 73.143 233.627 73.1243 233.011C73.115 232.768 73.0029 232.609 72.7881 232.534L71.0508 231.988L71.0228 231.386C72.2276 231.423 73.1803 231.442 73.8809 231.442C74.6841 231.442 75.5201 231.423 76.3887 231.386L82.8895 246.755L89.3763 231.386ZM106.14 249.767C104.683 250.851 103.226 251.392 101.769 251.392C100.302 251.392 99.2001 251.019 98.4622 250.271C97.7337 249.524 97.3694 248.473 97.3694 247.119V244.149C97.3694 242.15 97.3507 240.651 97.3134 239.652L95.45 239.147L95.38 238.671C97.0145 238.372 98.5276 238.045 99.9193 237.69L100.045 237.788C99.9894 238.881 99.9613 240.287 99.9613 242.005V246.461C99.9613 247.591 100.228 248.413 100.76 248.926C101.292 249.431 102.044 249.683 103.016 249.683C103.987 249.683 104.982 249.426 106 248.912V242.944C106 241.636 105.981 240.539 105.944 239.652L104.094 239.147L104.024 238.671C105.65 238.372 107.158 238.045 108.55 237.69L108.676 237.788C108.62 238.909 108.592 240.343 108.592 242.089C108.592 245.48 108.601 247.549 108.62 248.296C108.629 248.679 108.657 248.987 108.704 249.221C108.75 249.454 108.839 249.636 108.97 249.767C109.101 249.889 109.292 249.977 109.544 250.033C109.806 250.08 110.151 250.108 110.581 250.117L110.651 250.664C110.222 250.832 109.727 250.991 109.166 251.14C108.606 251.299 108.223 251.378 108.017 251.378C107.074 251.378 106.448 250.841 106.14 249.767ZM111.821 231.344L111.751 230.881C113.405 230.564 114.927 230.232 116.319 229.886L116.445 229.999C116.389 231.521 116.361 233.637 116.361 236.345V245.466C116.361 247.138 116.37 248.483 116.389 249.501C116.417 249.772 116.547 249.94 116.781 250.005L118.308 250.468L118.35 251.042C117.089 251.014 116.001 251 115.086 251C114.17 251 113.087 251.014 111.835 251.042L111.779 250.468L113.362 250.005C113.596 249.931 113.722 249.781 113.741 249.557C113.759 248.501 113.769 247.325 113.769 246.026V240.268C113.769 236.794 113.75 234.005 113.713 231.904L111.821 231.344ZM123.835 239.54C123.779 242.697 123.751 245.242 123.751 247.175C123.751 248.147 123.896 248.819 124.186 249.193C124.475 249.557 125.026 249.739 125.839 249.739C126.483 249.739 127.324 249.655 128.361 249.487L128.445 250.117C126.829 250.93 125.386 251.336 124.116 251.336C123.098 251.336 122.341 251.065 121.846 250.524C121.351 249.973 121.103 249.146 121.103 248.044C121.103 246.232 121.136 243.369 121.202 239.456L119.268 238.979L119.184 238.405L121.342 238.223L122.308 234.832C122.831 234.692 123.308 234.557 123.737 234.426L123.877 234.524C123.849 235.654 123.835 236.709 123.835 237.69V238.209H128.053V239.54H123.835ZM134.224 232.731C134.224 233.226 134.07 233.632 133.762 233.949C133.454 234.258 133.057 234.412 132.571 234.412C132.104 234.412 131.721 234.267 131.422 233.977C131.133 233.688 130.988 233.305 130.988 232.829C130.988 232.324 131.142 231.927 131.45 231.638C131.759 231.339 132.165 231.189 132.669 231.189C133.127 231.189 133.501 231.325 133.79 231.596C134.08 231.857 134.224 232.236 134.224 232.731ZM129.489 238.671C131.123 238.363 132.637 238.036 134.028 237.69L134.154 237.788C134.098 239.003 134.07 240.338 134.07 241.795V247.175C134.07 248.296 134.08 249.071 134.098 249.501C134.117 249.753 134.234 249.917 134.449 249.991L136.074 250.468L136.102 251.042C134.813 251.014 133.711 251 132.795 251C131.88 251 130.792 251.014 129.531 251.042L129.475 250.468L131.1 249.991C131.315 249.917 131.432 249.772 131.45 249.557C131.469 249.193 131.478 248.581 131.478 247.722V243.042C131.478 241.819 131.46 240.688 131.422 239.652L129.559 239.147L129.489 238.671ZM149.678 241.529C150.332 241.641 150.977 241.697 151.612 241.697C153.106 241.697 154.241 241.314 155.016 240.548C155.801 239.773 156.193 238.592 156.193 237.004C156.193 235.481 155.82 234.346 155.072 233.599C154.334 232.852 153.167 232.478 151.57 232.478C150.944 232.478 150.313 232.516 149.678 232.59V241.529ZM149.678 246.699C149.678 247.259 149.678 247.764 149.678 248.212C149.688 248.66 149.697 249.062 149.706 249.417C149.716 249.632 149.837 249.776 150.071 249.851L152.004 250.44L152.032 251.042C150.678 251.014 149.445 251 148.333 251C147.203 251 146.045 251.014 144.859 251.042L144.803 250.44L146.526 249.921C146.769 249.846 146.895 249.702 146.904 249.487C146.914 249.113 146.918 248.698 146.918 248.24C146.928 247.773 146.932 247.259 146.932 246.699V235.336C146.932 234.86 146.928 234.43 146.918 234.048C146.918 233.665 146.914 233.319 146.904 233.011C146.895 232.768 146.783 232.609 146.568 232.534L144.831 231.988L144.803 231.386C146.008 231.423 147.18 231.442 148.319 231.442C149.085 231.442 149.823 231.423 150.533 231.386C151.252 231.348 151.906 231.33 152.494 231.33C154.689 231.33 156.347 231.764 157.468 232.632C158.598 233.492 159.163 234.776 159.163 236.485C159.163 238.493 158.514 240.053 157.216 241.165C155.918 242.276 154.096 242.832 151.752 242.832C151.107 242.832 150.416 242.79 149.678 242.706V246.699ZM170.995 249.767C169.538 250.851 168.081 251.392 166.624 251.392C165.158 251.392 164.056 251.019 163.318 250.271C162.589 249.524 162.225 248.473 162.225 247.119V244.149C162.225 242.15 162.206 240.651 162.169 239.652L160.305 239.147L160.235 238.671C161.87 238.372 163.383 238.045 164.775 237.69L164.901 237.788C164.845 238.881 164.817 240.287 164.817 242.005V246.461C164.817 247.591 165.083 248.413 165.615 248.926C166.148 249.431 166.9 249.683 167.871 249.683C168.842 249.683 169.837 249.426 170.855 248.912V242.944C170.855 241.636 170.837 240.539 170.799 239.652L168.95 239.147L168.88 238.671C170.505 238.372 172.013 238.045 173.405 237.69L173.531 237.788C173.475 238.909 173.447 240.343 173.447 242.089C173.447 245.48 173.456 247.549 173.475 248.296C173.484 248.679 173.512 248.987 173.559 249.221C173.606 249.454 173.695 249.636 173.825 249.767C173.956 249.889 174.148 249.977 174.4 250.033C174.661 250.08 175.007 250.108 175.437 250.117L175.507 250.664C175.077 250.832 174.582 250.991 174.022 251.14C173.461 251.299 173.078 251.378 172.873 251.378C171.929 251.378 171.304 250.841 170.995 249.767ZM176.705 238.671C178.265 238.372 179.745 238.045 181.146 237.69L181.286 237.788V239.427C183.014 238.269 184.709 237.69 186.372 237.69L186.442 237.774C186.171 239.166 185.905 240.609 185.643 242.103L185.083 242.202C184.821 241.408 184.569 240.772 184.326 240.296C184.084 239.81 183.701 239.568 183.178 239.568C182.673 239.568 182.043 239.801 181.286 240.268V246.335C181.286 247.792 181.295 248.833 181.314 249.459C181.324 249.711 181.44 249.87 181.664 249.935L183.528 250.468L183.57 251.042C182.113 251.014 180.927 251 180.011 251C179.096 251 178.012 251.014 176.761 251.042L176.705 250.468L178.33 249.991C178.554 249.917 178.671 249.772 178.68 249.557C178.69 249.155 178.694 248.581 178.694 247.834V243.056C178.694 241.534 178.676 240.399 178.638 239.652L176.775 239.147L176.705 238.671ZM187.22 239.147L187.15 238.671C188.719 238.372 190.199 238.045 191.591 237.69L191.731 237.788V239.161C193.16 238.181 194.543 237.69 195.878 237.69C197.615 237.69 198.993 238.274 200.011 239.441C201.039 240.6 201.552 242.108 201.552 243.967C201.552 246.255 200.894 248.067 199.577 249.403C198.26 250.729 196.392 251.392 193.973 251.392C193.254 251.392 192.506 251.322 191.731 251.182V254.25C191.731 255.184 191.74 255.838 191.759 256.212C191.778 256.492 191.904 256.66 192.137 256.716L193.973 257.235L194.015 257.809C192.558 257.781 191.372 257.767 190.456 257.767C189.541 257.767 188.457 257.781 187.206 257.809L187.15 257.235L188.761 256.758C188.985 256.693 189.102 256.548 189.111 256.324C189.13 255.642 189.139 254.61 189.139 253.228V247.525C189.139 243.388 189.121 240.772 189.083 239.68L187.22 239.147ZM191.731 249.921C192.544 250.099 193.328 250.187 194.085 250.187C195.635 250.187 196.803 249.702 197.587 248.73C198.372 247.759 198.764 246.367 198.764 244.555C198.764 242.846 198.391 241.557 197.643 240.688C196.896 239.82 195.822 239.385 194.421 239.385C193.412 239.385 192.516 239.591 191.731 240.002V249.921ZM206.323 244.387C206.323 246.134 206.65 247.558 207.304 248.66C207.958 249.753 208.929 250.299 210.218 250.299C211.423 250.299 212.338 249.818 212.964 248.856C213.599 247.885 213.917 246.451 213.917 244.555C213.917 242.771 213.585 241.366 212.922 240.338C212.259 239.311 211.297 238.797 210.036 238.797C208.84 238.797 207.92 239.259 207.276 240.184C206.641 241.109 206.323 242.51 206.323 244.387ZM216.775 244.261C216.775 246.391 216.13 248.114 214.841 249.431C213.562 250.738 211.932 251.392 209.952 251.392C208.018 251.392 206.454 250.776 205.258 249.543C204.072 248.301 203.479 246.68 203.479 244.681C203.479 242.627 204.1 240.95 205.342 239.652C206.594 238.344 208.247 237.69 210.302 237.69C212.245 237.69 213.809 238.293 214.996 239.498C216.182 240.693 216.775 242.281 216.775 244.261ZM225.623 239.105C225.081 238.956 224.492 238.881 223.857 238.881C222.998 238.881 222.302 239.054 221.77 239.399C221.237 239.736 220.971 240.198 220.971 240.786C220.971 241.356 221.139 241.8 221.476 242.117C221.821 242.435 222.466 242.753 223.409 243.07L224.586 243.462C225.865 243.901 226.809 244.406 227.416 244.976C228.023 245.545 228.327 246.288 228.327 247.203C228.327 248.501 227.818 249.524 226.799 250.271C225.781 251.019 224.502 251.392 222.961 251.392C221.541 251.392 220.089 251.103 218.603 250.524C218.921 249.309 219.178 248.123 219.374 246.965L219.92 246.881L220.929 249.893C221.462 250.099 222.139 250.201 222.961 250.201C223.811 250.201 224.492 250.024 225.006 249.669C225.52 249.314 225.777 248.814 225.777 248.17C225.777 247.563 225.604 247.096 225.258 246.769C224.922 246.433 224.376 246.138 223.619 245.886L222.162 245.396C220.901 244.976 220.023 244.471 219.528 243.883C219.042 243.285 218.8 242.542 218.8 241.655C218.8 240.432 219.267 239.465 220.201 238.755C221.144 238.045 222.377 237.69 223.899 237.69C225.319 237.69 226.608 237.896 227.766 238.307C227.505 239.371 227.267 240.497 227.052 241.683L226.519 241.781L225.623 239.105ZM241.602 250.005C240.808 250.5 239.99 250.855 239.15 251.07C238.309 251.285 237.529 251.392 236.81 251.392C234.755 251.392 233.116 250.809 231.893 249.641C230.669 248.464 230.057 246.834 230.057 244.751C230.057 242.678 230.641 240.983 231.808 239.666C232.985 238.349 234.554 237.69 236.516 237.69C238.16 237.69 239.439 238.185 240.355 239.175C241.27 240.156 241.728 241.515 241.728 243.252C241.728 243.514 241.714 243.78 241.686 244.051H232.803C232.803 246.059 233.275 247.497 234.218 248.366C235.162 249.225 236.637 249.655 238.645 249.655C239.542 249.655 240.5 249.571 241.518 249.403L241.602 250.005ZM238.94 242.888V242.468C238.94 241.141 238.725 240.193 238.295 239.624C237.875 239.054 237.244 238.769 236.404 238.769C235.292 238.769 234.442 239.171 233.854 239.974C233.266 240.777 232.934 241.749 232.859 242.888H238.94ZM253.119 240.955C253.119 244 253.735 246.335 254.968 247.96C256.201 249.576 258.008 250.384 260.39 250.384C262.734 250.384 264.462 249.65 265.574 248.184C266.695 246.708 267.255 244.396 267.255 241.249C267.255 238.297 266.662 236.028 265.476 234.44C264.29 232.852 262.459 232.058 259.984 232.058C257.583 232.058 255.837 232.796 254.744 234.272C253.66 235.738 253.119 237.966 253.119 240.955ZM270.337 240.772C270.337 244.004 269.417 246.605 267.577 248.576C265.747 250.538 263.183 251.518 259.886 251.518C256.757 251.518 254.333 250.612 252.614 248.8C250.905 246.979 250.05 244.518 250.05 241.417C250.05 238.185 250.97 235.631 252.81 233.753C254.66 231.867 257.219 230.923 260.488 230.923C263.626 230.923 266.05 231.806 267.759 233.571C269.478 235.327 270.337 237.728 270.337 240.772ZM276.845 239.54V247.147C276.845 248.025 276.855 248.796 276.873 249.459C276.892 249.711 277.014 249.87 277.238 249.935L279.017 250.468L279.059 251.042C277.649 251.014 276.491 251 275.585 251C274.66 251 273.572 251.014 272.32 251.042L272.25 250.468L273.819 250.019C274.081 249.935 274.216 249.781 274.226 249.557C274.244 248.978 274.254 248.366 274.254 247.722V239.47L272.348 238.993L272.25 238.405L274.268 238.237V238.181C274.268 235.547 274.837 233.506 275.977 232.058C277.126 230.61 278.662 229.886 280.586 229.886C281.53 229.886 282.44 230.003 283.318 230.237C283.001 231.376 282.73 232.548 282.506 233.753L281.917 233.865L281.007 231.063C280.792 231.035 280.521 231.021 280.194 231.021C279.12 231.021 278.293 231.502 277.714 232.464C277.135 233.426 276.845 235.187 276.845 237.746V238.209H280.334V239.54H276.845ZM285.441 239.54V247.147C285.441 248.025 285.45 248.796 285.469 249.459C285.488 249.711 285.609 249.87 285.833 249.935L287.613 250.468L287.655 251.042C286.244 251.014 285.086 251 284.18 251C283.255 251 282.167 251.014 280.916 251.042L280.846 250.468L282.415 250.019C282.676 249.935 282.812 249.781 282.821 249.557C282.84 248.978 282.849 248.366 282.849 247.722V239.47L280.944 238.993L280.846 238.405L282.863 238.237V238.181C282.863 235.547 283.433 233.506 284.572 232.058C285.721 230.61 287.258 229.886 289.182 229.886C290.125 229.886 291.036 230.003 291.914 230.237C291.596 231.376 291.325 232.548 291.101 233.753L290.513 233.865L289.602 231.063C289.387 231.035 289.116 231.021 288.79 231.021C287.715 231.021 286.889 231.502 286.31 232.464C285.731 233.426 285.441 235.187 285.441 237.746V238.209H288.93V239.54H285.441ZM294.891 232.731C294.891 233.226 294.737 233.632 294.429 233.949C294.121 234.258 293.724 234.412 293.238 234.412C292.771 234.412 292.388 234.267 292.089 233.977C291.8 233.688 291.655 233.305 291.655 232.829C291.655 232.324 291.809 231.927 292.117 231.638C292.425 231.339 292.832 231.189 293.336 231.189C293.794 231.189 294.167 231.325 294.457 231.596C294.747 231.857 294.891 232.236 294.891 232.731ZM290.156 238.671C291.79 238.363 293.303 238.036 294.695 237.69L294.821 237.788C294.765 239.003 294.737 240.338 294.737 241.795V247.175C294.737 248.296 294.747 249.071 294.765 249.501C294.784 249.753 294.901 249.917 295.115 249.991L296.741 250.468L296.769 251.042C295.48 251.014 294.378 251 293.462 251C292.547 251 291.459 251.014 290.198 251.042L290.142 250.468L291.767 249.991C291.982 249.917 292.099 249.772 292.117 249.557C292.136 249.193 292.145 248.581 292.145 247.722V243.042C292.145 241.819 292.127 240.688 292.089 239.652L290.226 239.147L290.156 238.671ZM309.511 250.005C308.932 250.398 308.213 250.729 307.354 251C306.504 251.262 305.658 251.392 304.818 251.392C302.8 251.392 301.203 250.804 300.026 249.627C298.849 248.441 298.261 246.862 298.261 244.892C298.261 242.753 298.929 241.02 300.265 239.694C301.6 238.358 303.328 237.69 305.448 237.69C306.821 237.69 308.152 237.97 309.441 238.531C309.133 239.782 308.858 241.062 308.615 242.37L308.068 242.454L306.933 239.091C306.504 238.942 306.018 238.867 305.476 238.867C304.085 238.867 302.997 239.353 302.212 240.324C301.427 241.296 301.035 242.58 301.035 244.177C301.035 246.054 301.479 247.441 302.366 248.338C303.253 249.235 304.659 249.683 306.583 249.683C307.47 249.683 308.419 249.594 309.427 249.417L309.511 250.005ZM322.226 250.005C321.432 250.5 320.615 250.855 319.774 251.07C318.934 251.285 318.154 251.392 317.434 251.392C315.38 251.392 313.74 250.809 312.517 249.641C311.293 248.464 310.681 246.834 310.681 244.751C310.681 242.678 311.265 240.983 312.433 239.666C313.61 238.349 315.179 237.69 317.14 237.69C318.784 237.69 320.064 238.185 320.979 239.175C321.894 240.156 322.352 241.515 322.352 243.252C322.352 243.514 322.338 243.78 322.31 244.051H313.427C313.427 246.059 313.899 247.497 314.843 248.366C315.786 249.225 317.262 249.655 319.27 249.655C320.166 249.655 321.124 249.571 322.142 249.403L322.226 250.005ZM319.564 242.888V242.468C319.564 241.141 319.349 240.193 318.92 239.624C318.499 239.054 317.869 238.769 317.028 238.769C315.917 238.769 315.067 239.171 314.478 239.974C313.89 240.777 313.558 241.749 313.484 242.888H319.564Z" fill="#1F3C6C"/>
<path d="M151 280H239V282H151V280Z" fill="#5F7498"/>
<defs>
<linearGradient id="paint0_linear_203_8" x1="197.5" y1="0" x2="197.5" y2="395" gradientUnits="userSpaceOnUse">
<stop stop-color="white"/>
<stop offset="1" stop-color="white" stop-opacity="0"/>
</linearGradient>
</defs>
</svg>
