<svg width="274" height="5" fill="none" xmlns="http://www.w3.org/2000/svg"><path fill-rule="evenodd" clip-rule="evenodd" d="M136.991.91c1.758 0 3.229.571 3.531 1.305h2.912c.142-.734.854-1.305 1.694-1.305.839 0 1.535.571 1.677 1.305h2.231c2.042-.352 3.785-1.056 5.161-2.215 20.992.413 41.998.837 63.005 1.246L274 2.376v.248L217.202 3.74 154.197 5c-1.502-1.306-3.26-1.92-5.111-2.228h-2.281c-.142.748-.838 1.304-1.677 1.304-.84 0-1.552-.556-1.694-1.304h-2.912c-.302.748-1.773 1.304-3.531 1.304-1.756 0-3.229-.556-3.514-1.304h-2.929c-.143.748-.838 1.304-1.676 1.304-.841 0-1.552-.556-1.695-1.304h-2.265c-1.867.309-3.609.922-5.113 2.228L56.781 3.74 0 2.624v-.249l56.781-1.13C77.787.838 98.794.414 119.8 0c1.362 1.159 3.119 1.863 5.144 2.215h2.234c.143-.734.854-1.305 1.695-1.305.838 0 1.533.571 1.676 1.305h2.914c.3-.734 1.773-1.305 3.529-1.305z" fill="#1F3C6C"/></svg>