<svg width="466" height="199" fill="none" xmlns="http://www.w3.org/2000/svg"><path d="M75.4 81.2l-18.8-57-19.7 56.6-5.4.4-21.4-65.8c-.6-1.7-1.2-3-2-3.9-.7-.9-1.8-1.6-3.1-2L.1 8 0 5.7c3.5.1 7.6.2 12.4.2 4.3 0 9.2-.1 14.7-.2l.2 2.3-5 1.4c-.8.2-1.3.4-1.6.8-.3.4-.5.9-.5 1.6 0 .7.2 1.7.5 2.8.3 1.2.8 2.7 1.4 4.6l14.5 46L56.5 5.8l4.8-.4 19.3 60.3 15.1-46.5c.6-2 1.1-3.7 1.5-4.9.4-1.2.5-2.1.5-2.8 0-.7-.2-1.1-.5-1.4-.3-.3-.8-.5-1.5-.7l-5-1.3-.1-2.5c3.9.1 7.8.2 11.7.2 3.9 0 7.6-.1 11.2-.2l.2 2.3-5.4 1.7c-1.1.3-1.9.8-2.5 1.5-.6.7-1.2 1.9-1.8 3.5L80.8 80.5l-5.4.7zm67.2-31.4v-1.6c0-5.1-.8-8.7-2.4-10.9-1.6-2.2-4-3.3-7.1-3.3-4.2 0-7.3 1.5-9.5 4.6-2.2 3.1-3.4 6.8-3.7 11.1h22.7v.1zM153.2 77c-3 1.9-6.2 3.2-9.4 4.1-3.2.8-6.2 1.2-8.9 1.2-7.9 0-14.2-2.2-19-6.7-4.8-4.5-7.3-10.7-7.3-18.7 0-7.9 2.3-14.4 6.8-19.4 4.5-5 10.5-7.5 18.1-7.5 6.3 0 11.3 1.9 14.8 5.6 3.5 3.8 5.3 9 5.3 15.6 0 1-.1 2-.2 3.1h-33.8c0 7.7 1.8 13.2 5.4 16.5 3.6 3.3 9.2 5 16.9 5 3.4 0 7.1-.3 11-1l.3 2.2zM160 5.7l-.3-1.8c6.3-1.2 12.2-2.5 17.5-3.8l.5.4c-.2 5.8-.3 13.9-.3 24.3v34.9c0 6.4 0 11.5.1 15.4.1 1 .6 1.7 1.5 1.9l5.8 1.8.2 2.2c-4.8-.1-9-.2-12.5-.2s-7.7.1-12.5.2l-.2-2.2 6.1-1.8c.9-.3 1.4-.9 1.4-1.7.1-4 .1-8.5.1-13.5v-22c0-13.3-.1-23.9-.2-32L160 5.7zm30.8 0l-.3-1.8c6.3-1.2 12.2-2.5 17.5-3.8l.5.4c-.2 5.8-.3 13.9-.3 24.3v34.9c0 6.4 0 11.5.1 15.4.1 1 .6 1.7 1.5 1.9l5.8 1.8.2 2.2c-4.8-.1-9-.2-12.5-.2s-7.7.1-12.5.2l-.2-2.2 6.1-1.8c.9-.3 1.4-.9 1.4-1.7.1-4 .1-8.5.1-13.5v-22c0-13.3-.1-23.9-.2-32l-7.2-2.1zm24.8 25.5c4.5.1 8.5.2 12 .2 2.4 0 6.2-.1 11.5-.2l.2 2.2-6.3 1.7c1.3 3.7 2.9 7.9 4.6 12.4 1.7 4.5 3.6 9.2 5.6 14.1.8 2 1.7 4.4 2.7 7 1-2.7 2.1-5.4 3.2-8.2 1.7-4.1 3.3-8.2 4.9-12.2 1.6-4 3.2-8.4 4.9-13.1l-6.1-1.7-.2-2.2c2.6.1 5.7.2 9.3.2 3.2 0 6.3-.1 9.3-.2l.3 2.2-5 1.4c-1.1.4-1.9 1.1-2.4 2.2-1.3 3-2.8 6.4-4.3 10-4.7 11.1-8.3 20.1-10.7 27.2-1.6 4.8-3.1 9.7-4.4 14.7-1.3 5-2.3 9.3-3 12.9-.3 1.8-1 3.1-2 4-1 .9-3.3 1.4-6.9 1.4-3.7 0-7.2-.1-10.7-.4l-.3-2.1c3.9-.6 6.8-1.9 8.7-3.8 2.3-2.5 5.8-9 10.6-19.7l.4-1-.7-.2c-6.5-16.3-12.4-30.6-17.7-42.9-.5-1.1-1.3-1.8-2.5-2.2l-4.7-1.4-.3-2.3zm86.7 25.3c-7.5 0-12.6.8-15.4 2.3-2.8 1.5-4.1 4.1-4.1 7.8 0 3.4.9 5.8 2.7 7.2 1.8 1.4 4.3 2.1 7.4 2.1 3.5 0 6.6-.6 9.3-1.9l.1-17.5zm-26-22c7-3 13.1-4.6 18.5-4.6 5.5 0 9.8 1.4 13 4.3 3.2 2.9 4.8 7 4.7 12.4l-.3 22.3c0 1.8 0 3.3.1 4.4.1 1.1.5 2 1 2.5.5.6 1.3 1 2.3 1.2 1 .2 2.4.4 4.2.4l.3 2.1c-1.5.6-3.4 1.2-5.6 1.8-2.2.6-3.7.9-4.5.9-3.5 0-5.9-1.8-7.2-5.4-5.1 3.6-9.8 5.4-14.3 5.4-5 0-9-1.2-12.1-3.7-3-2.4-4.6-5.9-4.6-10.4 0-5.5 2.5-9.5 7.4-12.2 4.9-2.6 12.6-3.9 23.1-3.9l.1-4.2c0-4-1-7-3.1-8.9-2.1-1.9-5.3-2.9-9.5-2.9-3.2 0-7.3.6-12.2 1.8l-1.3-3.3zm48.7-.8c6-1.1 11.6-2.4 17-3.7l.5.4v6.3c6.6-4.4 13.1-6.6 19.4-6.6l.3.3c-1 5.3-2.1 10.8-3.1 16.5l-2.1.4c-1-3-2-5.5-2.9-7.3-.9-1.8-2.4-2.8-4.4-2.8-1.9 0-4.3.9-7.2 2.7V63c0 5.6 0 9.6.1 11.9 0 1 .5 1.6 1.3 1.8l7.1 2 .2 2.2c-5.6-.1-10.1-.2-13.6-.2s-7.7.1-12.5.2l-.2-2.2 6.2-1.8c.9-.3 1.3-.8 1.3-1.7 0-1.5.1-3.7.1-6.6V50.3c0-5.8-.1-10.2-.2-13l-7.1-1.9-.2-1.7zm78.9 2.1c-2.4-.7-5-1.1-7.9-1.1-6.1 0-10.7 1.7-13.9 5.2-3.2 3.5-4.8 8.8-4.8 15.8 0 6.1 1.4 11 4.2 14.6 2.8 3.7 6.8 5.5 12 5.5 3.3 0 6.8-.9 10.4-2.8V35.8zm-7.7-31.9c6.4-1.2 12.2-2.5 17.5-3.8l.5.4c-.2 7.6-.3 15.8-.3 24.6v29.1c0 4.9 0 9.8.1 14.6 0 1.8.1 3.3.2 4.4.1 1.1.4 2 .9 2.5.5.6 1.2 1 2.2 1.2 1 .2 2.4.3 4.1.4l.3 2.1c-1.6.6-3.5 1.2-5.6 1.8-2.2.6-3.7.9-4.5.9-3.6 0-6-2-7.3-6.1-5.5 4.1-10.9 6.2-16.1 6.2-6.6 0-11.9-2.3-15.8-7-4-4.7-5.9-10.5-5.9-17.3 0-8.9 2.6-15.7 7.9-20.6 5.3-4.9 12.6-7.3 22-7.3 2.3 0 4.8.3 7.7.8 0-7.9-.1-15.6-.2-23l-7.2-2.1-.5-1.8zm58.9 31.4c-2.1-.6-4.3-.9-6.7-.9-3.4 0-6.1.7-8.1 2-2.1 1.3-3.1 3.1-3.1 5.3 0 2.2.7 3.9 2 5.1 1.3 1.3 3.8 2.5 7.5 3.7l4.4 1.5c4.9 1.7 8.5 3.6 10.8 5.8 2.3 2.2 3.4 5 3.4 8.5 0 5-1.9 8.9-5.8 11.7-3.9 2.8-8.7 4.3-14.6 4.3-5.4 0-11-1.1-16.7-3.3 1.2-4.6 2.2-9.2 3-13.6l2.1-.3 3.9 11.5c2 .8 4.6 1.2 7.8 1.2 3.3 0 6-.7 8-2 2-1.4 3-3.3 3-5.7 0-2.3-.7-4.1-2-5.4-1.3-1.3-3.5-2.5-6.4-3.4l-5.6-1.9c-4.8-1.6-8.1-3.5-10-5.8-1.8-2.3-2.8-5.1-2.8-8.4 0-4.7 1.8-8.4 5.3-11.1 3.6-2.7 8.2-4 14.1-4 5.4 0 10.4.8 14.8 2.4-1 4.1-1.9 8.4-2.7 12.9l-2 .4-3.6-10.5zM69.7 123.1c1.3.1 2.5.1 3.6.1 1 0 2.4 0 4.2-.1l.1.9-2.6.8c-.3.1-.5.3-.5.7v24.6c0 .3.2.5.6.6l2.5.8v.9c-1.8 0-3.6-.1-5.3-.1-1.7 0-3.3 0-4.9.1l-.1-.9 2.4-.7c.3-.1.5-.3.5-.7v-22.2l-10.4 24.5-1.5.2-10.4-24.7v22.2c0 .4.2.6.5.7l2.3.7v.9c-1.7 0-3-.1-4.2-.1-1.1 0-2.5 0-4.3.1l-.1-.9 2.6-.8c.4-.1.5-.3.6-.6v-24.6c0-.4-.2-.6-.5-.7l-2.6-.8v-.9c1.8.1 3.2.1 4.3.1 1.2 0 2.4 0 3.7-.1L60 146l9.7-22.9zm25.4 27.4c-2.2 1.6-4.3 2.4-6.5 2.4s-3.8-.6-4.9-1.7c-1.1-1.1-1.6-2.7-1.6-4.7v-4.4c0-3 0-5.2-.1-6.7l-2.8-.8-.1-.7c2.4-.4 4.7-.9 6.8-1.5l.2.1c-.1 1.6-.1 3.7-.1 6.3v6.6c0 1.7.4 2.9 1.2 3.7.8.8 1.9 1.1 3.4 1.1 1.4 0 2.9-.4 4.4-1.1v-8.9c0-1.9 0-3.6-.1-4.9l-2.8-.8-.1-.7c2.4-.4 4.7-.9 6.8-1.5l.2.1c-.1 1.7-.1 3.8-.1 6.4v9.2c0 .6.1 1 .1 1.4.1.3.2.6.4.8.2.2.5.3.9.4.4.1.9.1 1.5.1l.1.8c-.6.3-1.4.5-2.2.7-.8.2-1.4.3-1.7.3-1.5.4-2.4-.4-2.9-2zM104 123l-.1-.7c2.5-.5 4.7-1 6.8-1.5l.2.2c-.1 2.3-.1 5.4-.1 9.5v19.6c0 .4.2.7.6.7l2.3.7.1.9c-1.9 0-3.5-.1-4.9-.1-1.4 0-3 0-4.9.1l-.1-.9 2.4-.7c.3-.1.5-.3.6-.7v-13.9c0-5.2 0-9.3-.1-12.5l-2.8-.7zm18.4 12.3c-.1 4.7-.1 8.5-.1 11.4 0 1.4.2 2.4.6 3 .4.5 1.3.8 2.5.8 1 0 2.2-.1 3.8-.4l.1.9c-2.4 1.2-4.6 1.8-6.4 1.8-1.5 0-2.7-.4-3.4-1.2-.8-.8-1.1-2-1.1-3.7 0-2.7.1-7 .2-12.8l-2.9-.7-.1-.9 3.2-.3 1.5-5.1c.8-.2 1.5-.4 2.2-.6l.2.1c0 1.7-.1 3.3-.1 4.7v.8h6.3v2h-6.5v.2zm15.8-10.2c0 .7-.2 1.3-.7 1.8-.5.5-1.1.7-1.8.7s-1.3-.2-1.7-.6c-.4-.4-.7-1-.7-1.7 0-.8.2-1.3.7-1.8.5-.4 1.1-.7 1.8-.7s1.2.2 1.7.6c.5.4.7 1 .7 1.7zm-7.1 8.9c2.4-.5 4.7-.9 6.8-1.5l.2.1c-.1 1.8-.1 3.8-.1 6v11.5c0 .4.2.6.5.7l2.4.7v.9c-1.9 0-3.6-.1-4.9-.1-1.4 0-3 0-4.9.1l-.1-.9 2.4-.7c.3-.1.5-.3.5-.6v-9.7c0-1.8 0-3.5-.1-5.1l-2.8-.8.1-.6zm31 4.2c1 .2 1.9.3 2.9.3 2.2 0 3.9-.6 5.1-1.7 1.2-1.1 1.7-2.9 1.7-5.3 0-2.3-.6-4-1.7-5.1-1.1-1.1-2.9-1.7-5.2-1.7-.9 0-1.9.1-2.8.2v13.3zm0 7.7v4.1c0 .3.2.5.5.6l2.9.9v.9c-2 0-3.9-.1-5.5-.1-1.7 0-3.4 0-5.2.1l-.1-.9 2.6-.8c.4-.1.6-.3.6-.6v-24.5c0-.4-.2-.6-.5-.7l-2.6-.8v-.9c1.8.1 3.5.1 5.3.1 1.2 0 2.3 0 3.3-.1 1.1-.1 2.1-.1 2.9-.1 3.3 0 5.8.6 7.5 1.9 1.7 1.3 2.5 3.2 2.5 5.7 0 3-1 5.3-2.9 7-2 1.7-4.7 2.5-8.2 2.5-1 0-2-.1-3.1-.2v5.9zm32.1 4.6c-2.2 1.6-4.3 2.4-6.5 2.4s-3.8-.6-4.9-1.7c-1.1-1.1-1.6-2.7-1.6-4.7v-4.4c0-3 0-5.2-.1-6.7l-2.8-.8-.1-.7c2.4-.4 4.7-.9 6.8-1.5l.2.1c-.1 1.6-.1 3.7-.1 6.3v6.6c0 1.7.4 2.9 1.2 3.7.8.8 1.9 1.1 3.4 1.1 1.4 0 2.9-.4 4.4-1.1v-8.9c0-1.9 0-3.6-.1-4.9l-2.8-.8-.1-.7c2.4-.4 4.7-.9 6.8-1.5l.2.1c-.1 1.7-.1 3.8-.1 6.4v9.2c0 .6.1 1 .1 1.4.1.3.2.6.4.8.2.2.5.3.9.4.4.1.9.1 1.5.1l.1.8c-.6.3-1.4.5-2.2.7-.8.2-1.4.3-1.7.3-1.5.4-2.4-.4-2.9-2zm9-16.5c2.3-.4 4.5-.9 6.6-1.5l.2.1v2.4c2.6-1.7 5.1-2.6 7.6-2.6l.1.1c-.4 2.1-.8 4.2-1.2 6.5l-.8.1c-.4-1.2-.8-2.1-1.1-2.9-.4-.7-.9-1.1-1.7-1.1-.8 0-1.7.4-2.8 1v13.6c0 .4.2.6.5.7l2.8.8.1.9c-2.2 0-3.9-.1-5.3-.1s-3 0-4.9.1l-.1-.9 2.4-.7c.3-.1.5-.3.5-.6v-9.7c0-2.3 0-4-.1-5.1l-2.8-.8v-.3zm22.8 16.7c1.2.3 2.4.4 3.5.4 2.3 0 4-.7 5.2-2.2 1.2-1.4 1.7-3.5 1.7-6.2 0-2.5-.6-4.5-1.7-5.8-1.1-1.3-2.7-1.9-4.8-1.9-1.5 0-2.8.3-4 .9v14.8h.1zm-6.8-16l-.1-.7c2.3-.4 4.6-.9 6.6-1.5l.2.1v2c2.1-1.5 4.2-2.2 6.2-2.2 2.6 0 4.7.9 6.2 2.6 1.5 1.7 2.3 4 2.3 6.8 0 3.4-1 6.1-3 8.1s-4.8 3-8.4 3c-1.1 0-2.2-.1-3.4-.3v7.5c0 .4.2.7.6.8l2.7.8.1.9c-2.2 0-3.9-.1-5.3-.1s-3 0-4.9.1l-.1-.9 2.4-.7c.3-.1.5-.3.5-.6v-13.1c0-6.2 0-10.1-.1-11.7l-2.5-.9zm29 7.8c0 2.6.5 4.7 1.5 6.4 1 1.6 2.4 2.5 4.3 2.5 1.8 0 3.2-.7 4.1-2.2.9-1.4 1.4-3.6 1.4-6.4 0-2.7-.5-4.8-1.5-6.3s-2.4-2.3-4.3-2.3c-1.8 0-3.1.7-4.1 2.1-.9 1.3-1.4 3.4-1.4 6.2zm15.5-.2c0 3.2-1 5.7-2.9 7.7s-4.4 2.9-7.3 2.9c-2.9 0-5.2-.9-7-2.8-1.8-1.8-2.7-4.3-2.7-7.2 0-3.1.9-5.6 2.8-7.5 1.9-1.9 4.3-2.9 7.4-2.9 2.9 0 5.2.9 7 2.7 1.8 1.8 2.7 4.1 2.7 7.1zm13.6-7.7c-.8-.2-1.7-.3-2.6-.3-1.3 0-2.4.3-3.2.8-.8.5-1.2 1.2-1.2 2.1 0 .8.3 1.5.8 2s1.5 1 2.9 1.4l1.7.6c1.9.7 3.3 1.4 4.2 2.2.9.8 1.4 1.9 1.4 3.3 0 1.9-.8 3.5-2.3 4.6-1.5 1.1-3.4 1.7-5.7 1.7-2.1 0-4.3-.4-6.5-1.3.5-1.8.9-3.6 1.1-5.3l.8-.1 1.5 4.5c.8.3 1.8.5 3 .5 1.3 0 2.3-.3 3.1-.8.8-.5 1.2-1.3 1.2-2.2 0-.9-.3-1.6-.8-2.1s-1.4-1-2.5-1.3l-2.2-.7c-1.9-.6-3.2-1.4-3.9-2.3-.7-.9-1.1-2-1.1-3.3 0-1.8.7-3.3 2.1-4.3 1.4-1.1 3.2-1.6 5.5-1.6 2.1 0 4 .3 5.8.9-.4 1.6-.7 3.3-1.1 5l-.8.1-1.2-4.1zm20.3 5.6v-.6c0-2-.3-3.4-.9-4.2-.6-.8-1.5-1.3-2.8-1.3-1.6 0-2.9.6-3.7 1.8-.9 1.2-1.3 2.6-1.5 4.3h8.9zm4.1 10.6c-1.2.7-2.4 1.3-3.7 1.6-1.3.3-2.4.5-3.5.5-3.1 0-5.5-.9-7.4-2.6-1.9-1.7-2.8-4.2-2.8-7.3 0-3.1.9-5.6 2.6-7.6 1.8-2 4.1-2.9 7.1-2.9 2.5 0 4.4.7 5.8 2.2 1.4 1.5 2.1 3.5 2.1 6.1 0 .4 0 .8-.1 1.2h-13.2c0 3 .7 5.1 2.1 6.4 1.4 1.3 3.6 1.9 6.6 1.9 1.3 0 2.8-.1 4.3-.4l.1.9zm17.8-13.4c0 4.5.9 8 2.8 10.4 1.8 2.4 4.5 3.6 8.1 3.6 3.5 0 6.1-1.1 7.7-3.3 1.7-2.2 2.5-5.6 2.5-10.3 0-4.4-.9-7.8-2.6-10.1-1.8-2.4-4.5-3.5-8.2-3.5-3.6 0-6.2 1.1-7.8 3.3-1.7 2.1-2.5 5.4-2.5 9.9zm25.7-.3c0 4.8-1.4 8.7-4.1 11.6-2.7 2.9-6.6 4.4-11.5 4.4-4.7 0-8.3-1.4-10.8-4.1-2.5-2.7-3.8-6.4-3.8-11 0-4.8 1.4-8.6 4.1-11.4 2.7-2.8 6.6-4.2 11.4-4.2 4.7 0 8.3 1.3 10.8 3.9 2.6 2.7 3.9 6.3 3.9 10.8zm23-1.9v14.9c0 .4.2.6.5.7l2.4.7v.9c-2 0-3.6-.1-5-.1s-3 0-4.9.1l-.1-.9 2.3-.7c.4-.1.6-.4.6-.7v-15h-9V150c0 .4.2.6.5.7l2.4.7v.9c-2 0-3.6-.1-5-.1s-3 0-4.9.1l-.1-.9 2.3-.7c.4-.1.6-.4.6-.7v-15l-2.8-.7-.1-.9 3-.2c0-3.8.9-6.8 2.6-9 1.7-2.2 4-3.2 6.9-3.2 1.4 0 2.8.2 4 .5-.5 1.7-.9 3.4-1.2 5.2l-.8.1-1.3-4.1c-.4-.1-.8-.1-1.3-.1-1.6 0-2.8.7-3.7 2.1-.9 1.4-1.3 4-1.3 7.9v.5h9c0-3.9 1-7 3-9.1 2-2.2 4.7-3.2 8.1-3.2 1.7 0 3.3.2 4.8.5-.5 1.7-.9 3.4-1.2 5.2l-.8.2-1.7-4.2c-.5-.1-1.1-.1-1.8-.1-2.1 0-3.8.7-4.9 2.2-1.2 1.4-1.7 4.1-1.7 7.9v.7h9.5c1.1-.3 2.2-.5 3.3-.8l.2.1c-.1 1.8-.1 3.8-.1 6V150c0 .4.2.6.5.7l2.4.7v.9c-1.9 0-3.6-.1-4.9-.1-1.4 0-2.9 0-4.6.1l-.1-.9 2.2-.6c.3-.1.5-.3.5-.6v-15.1h-8.3v.1zm35.4 15.7c-.9.6-1.9 1.1-3.2 1.5-1.3.4-2.5.6-3.8.6-3 0-5.4-.9-7.2-2.6-1.8-1.8-2.7-4.1-2.7-7 0-3.2 1-5.8 3.1-7.8 2-2 4.6-3 7.8-3 2 0 4 .4 6 1.3-.5 1.9-.9 3.8-1.2 5.7l-.8.1-1.7-5c-.6-.2-1.4-.3-2.2-.3-2.1 0-3.7.7-4.9 2.2-1.2 1.4-1.8 3.4-1.8 5.7 0 2.8.7 4.9 2 6.2 1.3 1.3 3.4 2 6.3 2 1.3 0 2.7-.1 4.2-.4l.1.8zm15.2-10.7v-.6c0-2-.3-3.4-.9-4.2-.6-.8-1.5-1.3-2.8-1.3-1.6 0-2.9.6-3.7 1.8-.9 1.2-1.3 2.6-1.5 4.3h8.9zm4.2 10.6c-1.2.7-2.4 1.3-3.7 1.6-1.3.3-2.4.5-3.5.5-3.1 0-5.5-.9-7.4-2.6-1.9-1.7-2.8-4.2-2.8-7.3 0-3.1.9-5.6 2.6-7.6 1.8-2 4.1-2.9 7.1-2.9 2.5 0 4.4.7 5.8 2.2 1.4 1.5 2.1 3.5 2.1 6.1 0 .4 0 .8-.1 1.2h-13.2c0 3 .7 5.1 2.1 6.4 1.4 1.3 3.6 1.9 6.6 1.9 1.3 0 2.8-.1 4.3-.4l.1.9zM310.1 196H155.3v2.1h154.8V196z" fill="#283B6D"/></svg>