<svg width="395" height="395" fill="none" xmlns="http://www.w3.org/2000/svg"><circle cx="197.5" cy="197.5" r="197.5" fill="url(#paint0_linear_203_8)" fill-opacity=".6"/><path d="M93.953 205.297l-13.025-39.522L67.308 205l-3.748.297-14.843-45.57c-.396-1.163-.854-2.054-1.373-2.672-.495-.644-1.2-1.101-2.116-1.373l-3.376-1.039-.075-1.596c2.425.099 5.295.148 8.61.148 2.993 0 6.383-.049 10.168-.148l.148 1.596-3.488 1.002c-.52.123-.89.309-1.113.556-.223.248-.334.606-.334 1.076 0 .495.11 1.151.334 1.967.247.792.569 1.843.964 3.154l10.057 31.877 13.768-41.154 3.34-.26 13.396 41.785 10.465-32.21c.445-1.411.791-2.536 1.039-3.377.247-.842.371-1.485.371-1.93 0-.445-.111-.767-.334-.965-.223-.198-.581-.359-1.076-.482l-3.488-.928-.075-1.707c2.672.099 5.381.148 8.127.148 2.672 0 5.27-.049 7.793-.148l.149 1.596-3.748 1.187c-.743.223-1.336.569-1.782 1.039-.42.47-.841 1.287-1.261 2.449L97.701 205l-3.748.297zm51.306-2.932c-2.103 1.311-4.268 2.252-6.494 2.821-2.227.569-4.292.853-6.197.853-5.443 0-9.785-1.546-13.026-4.639-3.241-3.117-4.861-7.434-4.861-12.951 0-5.492 1.546-9.982 4.639-13.47 3.117-3.489 7.273-5.233 12.468-5.233 4.355 0 7.744 1.311 10.168 3.934 2.425 2.597 3.637 6.197 3.637 10.799 0 .692-.037 1.397-.111 2.115h-23.528c0 5.319 1.25 9.129 3.748 11.429 2.499 2.276 6.408 3.415 11.727 3.415 2.375 0 4.911-.223 7.607-.668l.223 1.595zm-7.051-18.851V182.4c0-3.513-.569-6.024-1.707-7.533-1.113-1.509-2.783-2.263-5.01-2.263-2.944 0-5.195 1.063-6.753 3.191-1.559 2.128-2.437 4.7-2.635 7.719h16.105zm9.818-30.578l-.186-1.225c4.379-.841 8.412-1.719 12.098-2.635l.334.297c-.148 4.033-.223 9.636-.223 16.811v24.158c0 4.428.025 7.991.075 10.687.074.718.42 1.163 1.039 1.336l4.045 1.225.111 1.521c-3.34-.074-6.222-.111-8.647-.111-2.424 0-5.294.037-8.609.111l-.148-1.521 4.193-1.225c.618-.198.952-.594 1.002-1.187.049-2.796.074-5.913.074-9.352v-15.252c0-9.203-.049-16.588-.148-22.154l-5.01-1.484zm19.095 0l-.186-1.225c4.379-.841 8.412-1.719 12.098-2.635l.334.297c-.148 4.033-.223 9.636-.223 16.811v24.158c0 4.428.025 7.991.075 10.687.074.718.42 1.163 1.039 1.336l4.045 1.225.111 1.521c-3.34-.074-6.222-.111-8.647-.111-2.424 0-5.294.037-8.609.111l-.148-1.521 4.193-1.225c.618-.198.952-.594 1.002-1.187.049-2.796.074-5.913.074-9.352v-15.252c0-9.203-.049-16.588-.148-22.154l-5.01-1.484zm15.718 17.664c3.117.074 5.888.111 8.312.111 1.658 0 4.305-.037 7.942-.111l.148 1.521-4.341 1.188a314.697 314.697 0 0 0 3.191 8.609 985.14 985.14 0 0 0 3.859 9.76c.569 1.41 1.188 3.03 1.856 4.861a191.324 191.324 0 0 1 2.226-5.678 829.959 829.959 0 0 0 3.377-8.461 332.059 332.059 0 0 0 3.377-9.091l-4.23-1.188-.149-1.521c1.831.074 3.971.111 6.42.111 2.202 0 4.342-.037 6.42-.111l.186 1.521-3.451.965c-.767.247-1.324.754-1.67 1.521a916.32 916.32 0 0 0-2.969 6.903c-3.266 7.669-5.74 13.953-7.422 18.851a146.827 146.827 0 0 0-3.08 10.168c-.915 3.489-1.621 6.482-2.115 8.981-.223 1.212-.681 2.127-1.373 2.746-.668.643-2.252.965-4.75.965-2.549 0-5.022-.087-7.422-.26l-.186-1.447c2.722-.421 4.738-1.299 6.049-2.635 1.583-1.707 4.033-6.247 7.348-13.619l.297-.705-.52-.149c-4.527-11.281-8.622-21.202-12.283-29.761-.322-.743-.891-1.25-1.707-1.522l-3.266-1.002-.074-1.521zm58.505 17.589c-5.418 0-9.116.532-11.096 1.596-1.979 1.064-2.968 2.858-2.968 5.381 0 2.35.655 4.02 1.966 5.01 1.312.965 3.093 1.447 5.344 1.447 2.548 0 4.775-.433 6.68-1.299l.074-12.135zM223.346 172.9c4.824-2.102 9.092-3.154 12.803-3.154 3.785 0 6.729.99 8.832 2.969 2.127 1.979 3.179 4.836 3.154 8.572l-.185 15.438c-.025 1.261 0 2.276.074 3.043.099.767.321 1.36.668 1.781.371.396.915.68 1.633.853.717.149 1.682.235 2.894.26l.186 1.447c-1.064.421-2.363.842-3.897 1.262-1.534.421-2.573.631-3.117.631-2.4 0-4.045-1.237-4.936-3.711-3.463 2.499-6.729 3.748-9.796 3.748-3.439 0-6.21-.841-8.313-2.523-2.078-1.707-3.117-4.107-3.117-7.2 0-3.809 1.695-6.617 5.084-8.423 3.414-1.806 8.758-2.709 16.031-2.709l.037-2.895c.025-2.771-.68-4.824-2.115-6.16-1.435-1.336-3.637-2.004-6.605-2.004-2.252 0-5.072.421-8.461 1.262l-.854-2.487zm31.49-.556a205.687 205.687 0 0 0 11.763-2.598l.371.26v4.342c4.577-3.068 9.067-4.602 13.471-4.602l.186.223a611.28 611.28 0 0 0-2.116 11.467l-1.484.259c-.693-2.103-1.361-3.785-2.004-5.047-.643-1.286-1.657-1.929-3.043-1.929-1.336 0-3.006.618-5.01 1.855v16.069c0 3.859.025 6.617.075 8.275.024.668.334 1.089.927 1.262l4.936 1.41.111 1.521a511.917 511.917 0 0 0-9.426-.111c-2.424 0-5.294.037-8.609.111l-.148-1.521 4.304-1.262c.594-.198.903-.581.928-1.15.025-1.064.037-2.586.037-4.565v-12.654c0-4.033-.049-7.038-.148-9.018l-4.936-1.336-.185-1.261zm53.569 1.484c-1.657-.519-3.513-.779-5.566-.779-4.255 0-7.496 1.212-9.723 3.637-2.226 2.399-3.34 6.048-3.34 10.947 0 4.23.99 7.62 2.969 10.168 1.979 2.523 4.775 3.785 8.387 3.785 2.325 0 4.75-.643 7.273-1.93v-25.828zm-5.344-22.117c4.404-.841 8.437-1.719 12.098-2.635l.334.297a612.838 612.838 0 0 0-.223 17.07v20.188c0 3.414.013 6.791.038 10.131 0 1.261.037 2.276.111 3.043.099.767.322 1.36.668 1.781.346.396.853.668 1.521.816.693.149 1.658.235 2.895.26l.185 1.447c-1.088.421-2.399.842-3.933 1.262-1.509.421-2.536.631-3.08.631-2.499 0-4.181-1.41-5.047-4.231-3.835 2.846-7.558 4.268-11.17 4.268-4.577 0-8.238-1.62-10.984-4.861-2.722-3.266-4.082-7.274-4.082-12.024 0-6.135 1.818-10.885 5.455-14.25 3.636-3.364 8.72-5.047 15.252-5.047 1.583 0 3.352.174 5.306.52 0-5.467-.049-10.787-.148-15.957l-5.01-1.484-.186-1.225zm38.541 21.783c-1.435-.396-2.994-.594-4.676-.594-2.276 0-4.119.458-5.529 1.373-1.41.891-2.116 2.116-2.116 3.674 0 1.509.446 2.685 1.336 3.526.916.841 2.623 1.682 5.122 2.523l3.117 1.039c3.389 1.163 5.888 2.499 7.496 4.008 1.608 1.509 2.412 3.476 2.412 5.9 0 3.439-1.348 6.148-4.045 8.127-2.697 1.979-6.086 2.969-10.168 2.969-3.76 0-7.607-.767-11.541-2.301a109.81 109.81 0 0 0 2.041-9.426l1.447-.222 2.672 7.978c1.41.545 3.204.817 5.381.817 2.251 0 4.057-.47 5.418-1.41 1.361-.94 2.041-2.264 2.041-3.971 0-1.608-.458-2.845-1.373-3.711-.891-.891-2.338-1.67-4.342-2.338l-3.859-1.299c-3.34-1.113-5.666-2.449-6.977-4.008-1.286-1.583-1.929-3.55-1.929-5.9 0-3.241 1.237-5.801 3.71-7.682 2.499-1.88 5.765-2.82 9.797-2.82 3.761 0 7.175.544 10.243 1.633a148.114 148.114 0 0 0-1.893 8.943l-1.41.26-2.375-7.088zM89.376 231.386c.878.037 1.672.056 2.382.056.691 0 1.62-.019 2.788-.056l.056.602-1.765.546c-.215.075-.327.234-.336.477a79.111 79.111 0 0 0-.029 2.325v11.363c0 1.102.01 2.031.029 2.788.009.215.14.359.392.434l1.681.519.028.602c-1.233-.028-2.41-.042-3.53-.042-1.103 0-2.19.014-3.265.042l-.056-.602 1.611-.491c.224-.065.341-.229.35-.49.02-.738.028-1.658.028-2.76v-12.133L82.791 251l-1.022.112-6.992-16.546v12.133c0 1.102.01 2.022.028 2.76.01.261.131.425.365.49l1.569.491.028.602c-1.111-.028-2.04-.042-2.788-.042-.729 0-1.695.014-2.9.042l-.056-.602 1.723-.519c.243-.075.369-.219.378-.434.019-.757.028-1.686.028-2.788v-11.363c0-.934-.009-1.709-.028-2.325-.009-.243-.121-.402-.336-.477l-1.737-.546-.028-.602a98.7 98.7 0 0 0 2.858.056c.803 0 1.64-.019 2.508-.056l6.5 15.369 6.487-15.369zm16.764 18.381c-1.457 1.084-2.914 1.625-4.371 1.625-1.467 0-2.569-.373-3.307-1.121-.728-.747-1.093-1.798-1.093-3.152v-2.97c0-1.999-.018-3.498-.056-4.497l-1.863-.505-.07-.476a67.737 67.737 0 0 0 4.54-.981l.125.098a86.157 86.157 0 0 0-.084 4.217v4.456c0 1.13.267 1.952.799 2.465.532.505 1.284.757 2.256.757.971 0 1.966-.257 2.984-.771v-5.968c0-1.308-.019-2.405-.056-3.292l-1.85-.505-.07-.476a68.48 68.48 0 0 0 4.526-.981l.126.098a89.4 89.4 0 0 0-.084 4.301c0 3.391.009 5.46.028 6.207.009.383.037.691.084.925.046.233.135.415.266.546.131.122.322.21.574.266.262.047.607.075 1.037.084l.07.547c-.429.168-.924.327-1.485.476-.56.159-.943.238-1.149.238-.943 0-1.569-.537-1.877-1.611zm5.681-18.423l-.07-.463a86.51 86.51 0 0 0 4.568-.995l.126.113c-.056 1.522-.084 3.638-.084 6.346v9.121c0 1.672.009 3.017.028 4.035.028.271.158.439.392.504l1.527.463.042.574a149.896 149.896 0 0 0-3.264-.042c-.916 0-1.999.014-3.251.042l-.056-.574 1.583-.463c.234-.074.36-.224.379-.448.018-1.056.028-2.232.028-3.531v-5.758c0-3.474-.019-6.263-.056-8.364l-1.892-.56zm12.014 8.196a450.321 450.321 0 0 0-.084 7.635c0 .972.145 1.644.435 2.018.289.364.84.546 1.653.546.644 0 1.485-.084 2.522-.252l.084.63c-1.616.813-3.059 1.219-4.329 1.219-1.018 0-1.775-.271-2.27-.812-.495-.551-.743-1.378-.743-2.48 0-1.812.033-4.675.099-8.588l-1.934-.477-.084-.574 2.158-.182.966-3.391c.523-.14 1-.275 1.429-.406l.14.098a128.27 128.27 0 0 0-.042 3.166v.519h4.218v1.331h-4.218zm10.389-6.809c0 .495-.154.901-.462 1.218-.308.309-.705.463-1.191.463-.467 0-.85-.145-1.149-.435-.289-.289-.434-.672-.434-1.148 0-.505.154-.902.462-1.191.309-.299.715-.449 1.219-.449.458 0 .832.136 1.121.407.29.261.434.64.434 1.135zm-4.735 5.94a81.15 81.15 0 0 0 4.539-.981l.126.098a87.524 87.524 0 0 0-.084 4.007v5.38c0 1.121.01 1.896.028 2.326.019.252.136.416.351.49l1.625.477.028.574a155.625 155.625 0 0 0-3.307-.042c-.915 0-2.003.014-3.264.042l-.056-.574 1.625-.477c.215-.074.332-.219.35-.434.019-.364.028-.976.028-1.835v-4.68c0-1.223-.018-2.354-.056-3.39l-1.863-.505-.07-.476zm20.189 2.858c.654.112 1.299.168 1.934.168 1.494 0 2.629-.383 3.404-1.149.785-.775 1.177-1.956 1.177-3.544 0-1.523-.373-2.658-1.121-3.405-.738-.747-1.905-1.121-3.502-1.121-.626 0-1.257.038-1.892.112v8.939zm0 5.17v1.513l.028 1.205c.01.215.131.359.365.434l1.933.589.028.602a180.216 180.216 0 0 0-3.699-.042c-1.13 0-2.288.014-3.474.042l-.056-.602 1.723-.519c.243-.075.369-.219.378-.434.01-.374.014-.789.014-1.247.01-.467.014-.981.014-1.541v-11.363c0-.476-.004-.906-.014-1.288 0-.383-.004-.729-.014-1.037-.009-.243-.121-.402-.336-.477l-1.737-.546-.028-.602c1.205.037 2.377.056 3.516.056.766 0 1.504-.019 2.214-.056a37.373 37.373 0 0 1 1.961-.056c2.195 0 3.853.434 4.974 1.302 1.13.86 1.695 2.144 1.695 3.853 0 2.008-.649 3.568-1.947 4.68-1.298 1.111-3.12 1.667-5.464 1.667-.645 0-1.336-.042-2.074-.126v3.993zm21.317 3.068c-1.457 1.084-2.914 1.625-4.371 1.625-1.466 0-2.568-.373-3.306-1.121-.729-.747-1.093-1.798-1.093-3.152v-2.97c0-1.999-.019-3.498-.056-4.497l-1.864-.505-.07-.476a67.734 67.734 0 0 0 4.54-.981l.126.098a85.598 85.598 0 0 0-.084 4.217v4.456c0 1.13.266 1.952.798 2.465.533.505 1.285.757 2.256.757.971 0 1.966-.257 2.984-.771v-5.968c0-1.308-.018-2.405-.056-3.292l-1.849-.505-.07-.476a68.584 68.584 0 0 0 4.525-.981l.126.098a89.4 89.4 0 0 0-.084 4.301c0 3.391.009 5.46.028 6.207.009.383.037.691.084.925.047.233.136.415.266.546.131.122.323.21.575.266.261.047.607.075 1.037.084l.07.547c-.43.168-.925.327-1.485.476-.561.159-.944.238-1.149.238-.944 0-1.569-.537-1.878-1.611zm5.71-11.096c1.56-.299 3.04-.626 4.441-.981l.14.098v1.639c1.728-1.158 3.423-1.737 5.086-1.737l.07.084a236 236 0 0 0-.799 4.329l-.56.099c-.262-.794-.514-1.43-.757-1.906-.242-.486-.625-.728-1.148-.728-.505 0-1.135.233-1.892.7v6.067c0 1.457.009 2.498.028 3.124.01.252.126.411.35.476l1.864.533.042.574a192.832 192.832 0 0 0-3.559-.042c-.915 0-1.999.014-3.25.042l-.056-.574 1.625-.477c.224-.074.341-.219.35-.434.01-.402.014-.976.014-1.723v-4.778c0-1.522-.018-2.657-.056-3.404l-1.863-.505-.07-.476zm10.515.476l-.07-.476a74.216 74.216 0 0 0 4.441-.981l.14.098v1.373c1.429-.98 2.812-1.471 4.147-1.471 1.737 0 3.115.584 4.133 1.751 1.028 1.159 1.541 2.667 1.541 4.526 0 2.288-.658 4.1-1.975 5.436-1.317 1.326-3.185 1.989-5.604 1.989-.719 0-1.467-.07-2.242-.21v3.068c0 .934.009 1.588.028 1.962.019.28.145.448.378.504l1.836.519.042.574a192.832 192.832 0 0 0-3.559-.042c-.915 0-1.999.014-3.25.042l-.056-.574 1.611-.477c.224-.065.341-.21.35-.434.019-.682.028-1.714.028-3.096v-5.703c0-4.137-.018-6.753-.056-7.845l-1.863-.533zm4.511 10.774c.813.178 1.597.266 2.354.266 1.55 0 2.718-.485 3.502-1.457.785-.971 1.177-2.363 1.177-4.175 0-1.709-.373-2.998-1.121-3.867-.747-.868-1.821-1.303-3.222-1.303-1.009 0-1.905.206-2.69.617v9.919zm14.592-5.534c0 1.747.327 3.171.981 4.273.654 1.093 1.625 1.639 2.914 1.639 1.205 0 2.12-.481 2.746-1.443.635-.971.953-2.405.953-4.301 0-1.784-.332-3.189-.995-4.217-.663-1.027-1.625-1.541-2.886-1.541-1.196 0-2.116.462-2.76 1.387-.635.925-.953 2.326-.953 4.203zm10.452-.126c0 2.13-.645 3.853-1.934 5.17-1.279 1.307-2.909 1.961-4.889 1.961-1.934 0-3.498-.616-4.694-1.849-1.186-1.242-1.779-2.863-1.779-4.862 0-2.054.621-3.731 1.863-5.029 1.252-1.308 2.905-1.962 4.96-1.962 1.943 0 3.507.603 4.694 1.808 1.186 1.195 1.779 2.783 1.779 4.763zm8.848-5.156a6.646 6.646 0 0 0-1.766-.224c-.859 0-1.555.173-2.087.518-.533.337-.799.799-.799 1.387 0 .57.168 1.014.505 1.331.345.318.99.636 1.933.953l1.177.392c1.279.439 2.223.944 2.83 1.514.607.569.911 1.312.911 2.227 0 1.298-.509 2.321-1.528 3.068-1.018.748-2.297 1.121-3.838 1.121-1.42 0-2.872-.289-4.358-.868.318-1.215.575-2.401.771-3.559l.546-.084 1.009 3.012c.533.206 1.21.308 2.032.308.85 0 1.531-.177 2.045-.532.514-.355.771-.855.771-1.499 0-.607-.173-1.074-.519-1.401-.336-.336-.882-.631-1.639-.883l-1.457-.49c-1.261-.42-2.139-.925-2.634-1.513-.486-.598-.728-1.341-.728-2.228 0-1.223.467-2.19 1.401-2.9.943-.71 2.176-1.065 3.698-1.065 1.42 0 2.709.206 3.867.617a56.481 56.481 0 0 0-.714 3.376l-.533.098-.896-2.676zm15.979 10.9a8.706 8.706 0 0 1-2.452 1.065c-.841.215-1.621.322-2.34.322-2.055 0-3.694-.583-4.917-1.751-1.224-1.177-1.836-2.807-1.836-4.89 0-2.073.584-3.768 1.751-5.085 1.177-1.317 2.746-1.976 4.708-1.976 1.644 0 2.923.495 3.839 1.485.915.981 1.373 2.34 1.373 4.077 0 .262-.014.528-.042.799h-8.883c0 2.008.472 3.446 1.415 4.315.944.859 2.419 1.289 4.427 1.289.897 0 1.855-.084 2.873-.252l.084.602zm-2.662-7.117v-.42c0-1.327-.215-2.275-.645-2.844-.42-.57-1.051-.855-1.891-.855-1.112 0-1.962.402-2.55 1.205-.588.803-.92 1.775-.995 2.914h6.081zm14.179-1.933c0 3.045.616 5.38 1.849 7.005 1.233 1.616 3.04 2.424 5.422 2.424 2.344 0 4.072-.734 5.184-2.2 1.121-1.476 1.681-3.788 1.681-6.935 0-2.952-.593-5.221-1.779-6.809s-3.017-2.382-5.492-2.382c-2.401 0-4.147.738-5.24 2.214-1.084 1.466-1.625 3.694-1.625 6.683zm17.218-.183c0 3.232-.92 5.833-2.76 7.804-1.83 1.962-4.394 2.942-7.691 2.942-3.129 0-5.553-.906-7.272-2.718-1.709-1.821-2.564-4.282-2.564-7.383 0-3.232.92-5.786 2.76-7.664 1.85-1.886 4.409-2.83 7.678-2.83 3.138 0 5.562.883 7.271 2.648 1.719 1.756 2.578 4.157 2.578 7.201zm6.508-1.232v7.607c0 .878.01 1.649.028 2.312.019.252.141.411.365.476l1.779.533.042.574c-1.41-.028-2.568-.042-3.474-.042-.925 0-2.013.014-3.265.042l-.07-.574 1.569-.449c.262-.084.397-.238.407-.462.018-.579.028-1.191.028-1.835v-8.252l-1.906-.477-.098-.588 2.018-.168v-.056c0-2.634.569-4.675 1.709-6.123 1.149-1.448 2.685-2.172 4.609-2.172.944 0 1.854.117 2.732.351a41.172 41.172 0 0 0-.812 3.516l-.589.112-.91-2.802a6.486 6.486 0 0 0-.813-.042c-1.074 0-1.901.481-2.48 1.443-.579.962-.869 2.723-.869 5.282v.463h3.489v1.331h-3.489zm8.596 0v7.607c0 .878.009 1.649.028 2.312.019.252.14.411.364.476l1.78.533.042.574a181.688 181.688 0 0 0-3.475-.042c-.925 0-2.013.014-3.264.042l-.07-.574 1.569-.449c.261-.084.397-.238.406-.462.019-.579.028-1.191.028-1.835v-8.252l-1.905-.477-.098-.588 2.017-.168v-.056c0-2.634.57-4.675 1.709-6.123 1.149-1.448 2.686-2.172 4.61-2.172.943 0 1.854.117 2.732.351a40.796 40.796 0 0 0-.813 3.516l-.588.112-.911-2.802a6.48 6.48 0 0 0-.812-.042c-1.075 0-1.901.481-2.48 1.443-.579.962-.869 2.723-.869 5.282v.463h3.489v1.331h-3.489zm9.45-6.809c0 .495-.154.901-.462 1.218-.308.309-.705.463-1.191.463-.467 0-.85-.145-1.149-.435-.289-.289-.434-.672-.434-1.148 0-.505.154-.902.462-1.191.308-.299.715-.449 1.219-.449.458 0 .831.136 1.121.407.29.261.434.64.434 1.135zm-4.735 5.94a81.346 81.346 0 0 0 4.539-.981l.126.098a87.524 87.524 0 0 0-.084 4.007v5.38c0 1.121.01 1.896.028 2.326.019.252.136.416.35.49l1.626.477.028.574a155.625 155.625 0 0 0-3.307-.042c-.915 0-2.003.014-3.264.042l-.056-.574 1.625-.477c.215-.074.332-.219.35-.434.019-.364.028-.976.028-1.835v-4.68c0-1.223-.018-2.354-.056-3.39l-1.863-.505-.07-.476zm19.355 11.334c-.579.393-1.298.724-2.157.995a8.574 8.574 0 0 1-2.536.392c-2.018 0-3.615-.588-4.792-1.765-1.177-1.186-1.765-2.765-1.765-4.735 0-2.139.668-3.872 2.004-5.198 1.335-1.336 3.063-2.004 5.183-2.004 1.373 0 2.704.28 3.993.841a68.058 68.058 0 0 0-.826 3.839l-.547.084-1.135-3.363a4.427 4.427 0 0 0-1.457-.224c-1.391 0-2.479.486-3.264 1.457-.785.972-1.177 2.256-1.177 3.853 0 1.877.444 3.264 1.331 4.161.887.897 2.293 1.345 4.217 1.345.887 0 1.836-.089 2.844-.266l.084.588zm12.715 0a8.694 8.694 0 0 1-2.452 1.065c-.84.215-1.62.322-2.34.322-2.054 0-3.694-.583-4.917-1.751-1.224-1.177-1.836-2.807-1.836-4.89 0-2.073.584-3.768 1.752-5.085 1.177-1.317 2.746-1.976 4.707-1.976 1.644 0 2.924.495 3.839 1.485.915.981 1.373 2.34 1.373 4.077 0 .262-.014.528-.042.799h-8.883c0 2.008.472 3.446 1.416 4.315.943.859 2.419 1.289 4.427 1.289.896 0 1.854-.084 2.872-.252l.084.602zm-2.662-7.117v-.42c0-1.327-.215-2.275-.644-2.844-.421-.57-1.051-.855-1.892-.855-1.111 0-1.961.402-2.55 1.205-.588.803-.92 1.775-.994 2.914h6.08z" fill="#1F3C6C"/><path d="M151 280h88v2h-88v-2z" fill="#5F7498"/><defs><linearGradient id="paint0_linear_203_8" x1="197.5" x2="197.5" y2="395" gradientUnits="userSpaceOnUse"><stop stop-color="#fff"/><stop offset="1" stop-color="#fff" stop-opacity="0"/></linearGradient></defs></svg>